<svg width="958" height="358" viewBox="0 0 958 358" fill="none" xmlns="http://www.w3.org/2000/svg">
<rect x="1" y="1" width="44" height="26" rx="11" stroke="#2A2B56" stroke-width="2"/>
<rect x="1" y="31" width="44" height="26" rx="11" stroke="#2A2B56" stroke-width="2"/>
<rect x="1" y="61" width="44" height="26" rx="11" stroke="#2A2B56" stroke-width="2"/>
<rect x="1" y="91" width="44" height="26" rx="11" stroke="#2A2B56" stroke-width="2"/>
<rect x="1" y="121" width="44" height="26" rx="11" stroke="#2A2B56" stroke-width="2"/>
<rect x="1" y="151" width="44" height="26" rx="11" stroke="#2A2B56" stroke-width="2"/>
<rect x="1" y="181" width="44" height="26" rx="11" stroke="#2A2B56" stroke-width="2"/>
<rect x="1" y="211" width="44" height="26" rx="11" stroke="#2A2B56" stroke-width="2"/>
<rect x="1" y="241" width="44" height="26" rx="11" stroke="#2A2B56" stroke-width="2"/>
<rect x="1" y="271" width="44" height="26" rx="11" stroke="#2A2B56" stroke-width="2"/>
<rect x="1" y="301" width="44" height="26" rx="11" stroke="#2A2B56" stroke-width="2"/>
<rect x="1" y="331" width="44" height="26" rx="11" stroke="#2A2B56" stroke-width="2"/>
<rect x="49" y="1" width="44" height="26" rx="11" stroke="#FF990A" stroke-width="2"/>
<rect x="49" y="31" width="44" height="26" rx="11" stroke="#FF990A" stroke-width="2"/>
<rect x="49" y="61" width="44" height="26" rx="11" stroke="#FF990A" stroke-width="2"/>
<rect x="49" y="91" width="44" height="26" rx="11" stroke="#FF990A" stroke-width="2"/>
<rect x="49" y="121" width="44" height="26" rx="11" stroke="#FF990A" stroke-width="2"/>
<rect x="49" y="151" width="44" height="26" rx="11" stroke="#FF990A" stroke-width="2"/>
<rect x="49" y="181" width="44" height="26" rx="11" stroke="#FF990A" stroke-width="2"/>
<rect x="49" y="211" width="44" height="26" rx="11" stroke="#FF990A" stroke-width="2"/>
<rect x="49" y="241" width="44" height="26" rx="11" stroke="#FF990A" stroke-width="2"/>
<rect x="49" y="271" width="44" height="26" rx="11" stroke="#FF990A" stroke-width="2"/>
<rect x="49" y="301" width="44" height="26" rx="11" stroke="#FF990A" stroke-width="2"/>
<rect x="49" y="331" width="44" height="26" rx="11" stroke="#FF990A" stroke-width="2"/>
<rect x="97" y="1" width="44" height="26" rx="11" stroke="#FF990A" stroke-width="2"/>
<rect x="97" y="31" width="44" height="26" rx="11" stroke="#FF990A" stroke-width="2"/>
<rect x="97" y="61" width="44" height="26" rx="11" stroke="#FF990A" stroke-width="2"/>
<rect x="97" y="91" width="44" height="26" rx="11" stroke="#FF990A" stroke-width="2"/>
<rect x="97" y="121" width="44" height="26" rx="11" stroke="#FF990A" stroke-width="2"/>
<rect x="97" y="151" width="44" height="26" rx="11" stroke="#FF990A" stroke-width="2"/>
<rect x="97" y="181" width="44" height="26" rx="11" stroke="#FF990A" stroke-width="2"/>
<rect x="97" y="211" width="44" height="26" rx="11" stroke="#FF990A" stroke-width="2"/>
<rect x="97" y="241" width="44" height="26" rx="11" stroke="#FF990A" stroke-width="2"/>
<rect x="97" y="271" width="44" height="26" rx="11" stroke="#FF990A" stroke-width="2"/>
<rect x="97" y="301" width="44" height="26" rx="11" stroke="#FF990A" stroke-width="2"/>
<rect x="97" y="331" width="44" height="26" rx="11" stroke="#FF990A" stroke-width="2"/>
<rect x="145" y="1" width="44" height="26" rx="11" stroke="#FF990A" stroke-width="2"/>
<rect x="145" y="31" width="44" height="26" rx="11" stroke="#FF990A" stroke-width="2"/>
<rect x="145" y="61" width="44" height="26" rx="11" stroke="#FF990A" stroke-width="2"/>
<rect x="145" y="91" width="44" height="26" rx="11" stroke="#FF990A" stroke-width="2"/>
<rect x="145" y="121" width="44" height="26" rx="11" stroke="#FF990A" stroke-width="2"/>
<rect x="145" y="151" width="44" height="26" rx="11" stroke="#FF990A" stroke-width="2"/>
<rect x="145" y="181" width="44" height="26" rx="11" stroke="#FF990A" stroke-width="2"/>
<rect x="145" y="211" width="44" height="26" rx="11" stroke="#FF990A" stroke-width="2"/>
<rect x="145" y="241" width="44" height="26" rx="11" stroke="#FF990A" stroke-width="2"/>
<rect x="145" y="271" width="44" height="26" rx="11" stroke="#FF990A" stroke-width="2"/>
<rect x="145" y="301" width="44" height="26" rx="11" stroke="#FF990A" stroke-width="2"/>
<rect x="145" y="331" width="44" height="26" rx="11" stroke="#FF990A" stroke-width="2"/>
<rect x="192.77" y="1" width="44" height="26" rx="11" stroke="#2A2B56" stroke-width="2"/>
<rect x="192.77" y="31" width="44" height="26" rx="11" stroke="#2A2B56" stroke-width="2"/>
<rect x="192.77" y="61" width="44" height="26" rx="11" stroke="#2A2B56" stroke-width="2"/>
<rect x="192.77" y="91" width="44" height="26" rx="11" stroke="#2A2B56" stroke-width="2"/>
<rect x="192.77" y="121" width="44" height="26" rx="11" stroke="#2A2B56" stroke-width="2"/>
<rect x="192.77" y="151" width="44" height="26" rx="11" stroke="#2A2B56" stroke-width="2"/>
<rect x="192.77" y="181" width="44" height="26" rx="11" stroke="#2A2B56" stroke-width="2"/>
<rect x="192.77" y="211" width="44" height="26" rx="11" stroke="#2A2B56" stroke-width="2"/>
<rect x="192.77" y="241" width="44" height="26" rx="11" stroke="#2A2B56" stroke-width="2"/>
<rect x="192.77" y="271" width="44" height="26" rx="11" stroke="#2A2B56" stroke-width="2"/>
<rect x="192.77" y="301" width="44" height="26" rx="11" stroke="#2A2B56" stroke-width="2"/>
<rect x="192.77" y="331" width="44" height="26" rx="11" stroke="#2A2B56" stroke-width="2"/>
<rect x="240.77" y="1" width="44" height="26" rx="11" stroke="#FF990A" stroke-width="2"/>
<rect x="240.77" y="31" width="44" height="26" rx="11" stroke="#FF990A" stroke-width="2"/>
<rect x="240.77" y="61" width="44" height="26" rx="11" stroke="#FF990A" stroke-width="2"/>
<rect x="240.77" y="91" width="44" height="26" rx="11" stroke="#FF990A" stroke-width="2"/>
<rect x="240.77" y="121" width="44" height="26" rx="11" stroke="#FF990A" stroke-width="2"/>
<rect x="240.77" y="151" width="44" height="26" rx="11" stroke="#FF990A" stroke-width="2"/>
<rect x="240.77" y="181" width="44" height="26" rx="11" stroke="#FF990A" stroke-width="2"/>
<rect x="240.77" y="211" width="44" height="26" rx="11" stroke="#FF990A" stroke-width="2"/>
<rect x="240.77" y="241" width="44" height="26" rx="11" stroke="#FF990A" stroke-width="2"/>
<rect x="240.77" y="271" width="44" height="26" rx="11" stroke="#FF990A" stroke-width="2"/>
<rect x="240.77" y="301" width="44" height="26" rx="11" stroke="#FF990A" stroke-width="2"/>
<rect x="240.77" y="331" width="44" height="26" rx="11" stroke="#FF990A" stroke-width="2"/>
<rect x="288.77" y="1" width="44" height="26" rx="11" stroke="#FF990A" stroke-width="2"/>
<rect x="288.77" y="31" width="44" height="26" rx="11" stroke="#FF990A" stroke-width="2"/>
<rect x="288.77" y="61" width="44" height="26" rx="11" stroke="#FF990A" stroke-width="2"/>
<rect x="288.77" y="91" width="44" height="26" rx="11" stroke="#FF990A" stroke-width="2"/>
<rect x="288.77" y="121" width="44" height="26" rx="11" stroke="#FF990A" stroke-width="2"/>
<rect x="288.77" y="151" width="44" height="26" rx="11" stroke="#FF990A" stroke-width="2"/>
<rect x="288.77" y="181" width="44" height="26" rx="11" stroke="#FF990A" stroke-width="2"/>
<rect x="288.77" y="211" width="44" height="26" rx="11" stroke="#FF990A" stroke-width="2"/>
<rect x="288.77" y="241" width="44" height="26" rx="11" stroke="#FF990A" stroke-width="2"/>
<rect x="288.77" y="271" width="44" height="26" rx="11" stroke="#FF990A" stroke-width="2"/>
<rect x="288.77" y="301" width="44" height="26" rx="11" stroke="#FF990A" stroke-width="2"/>
<rect x="288.77" y="331" width="44" height="26" rx="11" stroke="#FF990A" stroke-width="2"/>
<rect x="336.77" y="1" width="44" height="26" rx="11" stroke="#FF990A" stroke-width="2"/>
<rect x="336.77" y="31" width="44" height="26" rx="11" stroke="#FF990A" stroke-width="2"/>
<rect x="336.77" y="61" width="44" height="26" rx="11" stroke="#FF990A" stroke-width="2"/>
<rect x="336.77" y="91" width="44" height="26" rx="11" stroke="#FF990A" stroke-width="2"/>
<rect x="336.77" y="121" width="44" height="26" rx="11" stroke="#FF990A" stroke-width="2"/>
<rect x="336.77" y="151" width="44" height="26" rx="11" stroke="#FF990A" stroke-width="2"/>
<rect x="336.77" y="181" width="44" height="26" rx="11" stroke="#FF990A" stroke-width="2"/>
<rect x="336.77" y="211" width="44" height="26" rx="11" stroke="#FF990A" stroke-width="2"/>
<rect x="336.77" y="241" width="44" height="26" rx="11" stroke="#FF990A" stroke-width="2"/>
<rect x="336.77" y="271" width="44" height="26" rx="11" stroke="#FF990A" stroke-width="2"/>
<rect x="336.77" y="301" width="44" height="26" rx="11" stroke="#FF990A" stroke-width="2"/>
<rect x="336.77" y="331" width="44" height="26" rx="11" stroke="#FF990A" stroke-width="2"/>
<rect x="384.54" y="1" width="44" height="26" rx="11" stroke="#2A2B56" stroke-width="2"/>
<rect x="384.54" y="31" width="44" height="26" rx="11" stroke="#2A2B56" stroke-width="2"/>
<rect x="384.54" y="61" width="44" height="26" rx="11" stroke="#2A2B56" stroke-width="2"/>
<rect x="384.54" y="91" width="44" height="26" rx="11" stroke="#2A2B56" stroke-width="2"/>
<rect x="384.54" y="121" width="44" height="26" rx="11" stroke="#2A2B56" stroke-width="2"/>
<rect x="384.54" y="151" width="44" height="26" rx="11" stroke="#2A2B56" stroke-width="2"/>
<rect x="384.54" y="181" width="44" height="26" rx="11" stroke="#2A2B56" stroke-width="2"/>
<rect x="384.54" y="211" width="44" height="26" rx="11" stroke="#2A2B56" stroke-width="2"/>
<rect x="384.54" y="241" width="44" height="26" rx="11" stroke="#2A2B56" stroke-width="2"/>
<rect x="384.54" y="271" width="44" height="26" rx="11" stroke="#2A2B56" stroke-width="2"/>
<rect x="384.54" y="301" width="44" height="26" rx="11" stroke="#2A2B56" stroke-width="2"/>
<rect x="384.54" y="331" width="44" height="26" rx="11" stroke="#2A2B56" stroke-width="2"/>
<rect x="432.54" y="1" width="44" height="26" rx="11" stroke="#FF990A" stroke-width="2"/>
<rect x="432.54" y="31" width="44" height="26" rx="11" stroke="#FF990A" stroke-width="2"/>
<rect x="432.54" y="61" width="44" height="26" rx="11" stroke="#FF990A" stroke-width="2"/>
<rect x="432.54" y="91" width="44" height="26" rx="11" stroke="#FF990A" stroke-width="2"/>
<rect x="432.54" y="121" width="44" height="26" rx="11" stroke="#FF990A" stroke-width="2"/>
<rect x="432.54" y="151" width="44" height="26" rx="11" stroke="#FF990A" stroke-width="2"/>
<rect x="432.54" y="181" width="44" height="26" rx="11" stroke="#FF990A" stroke-width="2"/>
<rect x="432.54" y="211" width="44" height="26" rx="11" stroke="#FF990A" stroke-width="2"/>
<rect x="432.54" y="241" width="44" height="26" rx="11" stroke="#FF990A" stroke-width="2"/>
<rect x="432.54" y="271" width="44" height="26" rx="11" stroke="#FF990A" stroke-width="2"/>
<rect x="432.54" y="301" width="44" height="26" rx="11" stroke="#FF990A" stroke-width="2"/>
<rect x="432.54" y="331" width="44" height="26" rx="11" stroke="#FF990A" stroke-width="2"/>
<rect x="480.54" y="1" width="44" height="26" rx="11" stroke="#FF990A" stroke-width="2"/>
<rect x="480.54" y="31" width="44" height="26" rx="11" stroke="#FF990A" stroke-width="2"/>
<rect x="480.54" y="61" width="44" height="26" rx="11" stroke="#FF990A" stroke-width="2"/>
<rect x="480.54" y="91" width="44" height="26" rx="11" stroke="#FF990A" stroke-width="2"/>
<rect x="480.54" y="121" width="44" height="26" rx="11" stroke="#FF990A" stroke-width="2"/>
<rect x="480.54" y="151" width="44" height="26" rx="11" stroke="#FF990A" stroke-width="2"/>
<rect x="480.54" y="181" width="44" height="26" rx="11" stroke="#FF990A" stroke-width="2"/>
<rect x="480.54" y="211" width="44" height="26" rx="11" stroke="#FF990A" stroke-width="2"/>
<rect x="480.54" y="241" width="44" height="26" rx="11" stroke="#FF990A" stroke-width="2"/>
<rect x="480.54" y="271" width="44" height="26" rx="11" stroke="#FF990A" stroke-width="2"/>
<rect x="480.54" y="301" width="44" height="26" rx="11" stroke="#FF990A" stroke-width="2"/>
<rect x="480.54" y="331" width="44" height="26" rx="11" stroke="#FF990A" stroke-width="2"/>
<rect x="528.539" y="1" width="44" height="26" rx="11" stroke="#FF990A" stroke-width="2"/>
<rect x="528.539" y="31" width="44" height="26" rx="11" stroke="#FF990A" stroke-width="2"/>
<rect x="528.539" y="61" width="44" height="26" rx="11" stroke="#FF990A" stroke-width="2"/>
<rect x="528.539" y="91" width="44" height="26" rx="11" stroke="#FF990A" stroke-width="2"/>
<rect x="528.539" y="121" width="44" height="26" rx="11" stroke="#FF990A" stroke-width="2"/>
<rect x="528.539" y="151" width="44" height="26" rx="11" stroke="#FF990A" stroke-width="2"/>
<rect x="528.539" y="181" width="44" height="26" rx="11" stroke="#FF990A" stroke-width="2"/>
<rect x="528.539" y="211" width="44" height="26" rx="11" stroke="#FF990A" stroke-width="2"/>
<rect x="528.539" y="241" width="44" height="26" rx="11" stroke="#FF990A" stroke-width="2"/>
<rect x="528.539" y="271" width="44" height="26" rx="11" stroke="#FF990A" stroke-width="2"/>
<rect x="528.539" y="301" width="44" height="26" rx="11" stroke="#FF990A" stroke-width="2"/>
<rect x="528.539" y="331" width="44" height="26" rx="11" stroke="#FF990A" stroke-width="2"/>
<rect x="576.309" y="1" width="44" height="26" rx="11" stroke="#2A2B56" stroke-width="2"/>
<rect x="576.309" y="31" width="44" height="26" rx="11" stroke="#2A2B56" stroke-width="2"/>
<rect x="576.309" y="61" width="44" height="26" rx="11" stroke="#2A2B56" stroke-width="2"/>
<rect x="576.309" y="91" width="44" height="26" rx="11" stroke="#2A2B56" stroke-width="2"/>
<rect x="576.309" y="121" width="44" height="26" rx="11" stroke="#2A2B56" stroke-width="2"/>
<rect x="576.309" y="151" width="44" height="26" rx="11" stroke="#2A2B56" stroke-width="2"/>
<rect x="576.309" y="181" width="44" height="26" rx="11" stroke="#2A2B56" stroke-width="2"/>
<rect x="576.309" y="211" width="44" height="26" rx="11" stroke="#2A2B56" stroke-width="2"/>
<rect x="576.309" y="241" width="44" height="26" rx="11" stroke="#2A2B56" stroke-width="2"/>
<rect x="576.309" y="271" width="44" height="26" rx="11" stroke="#2A2B56" stroke-width="2"/>
<rect x="576.309" y="301" width="44" height="26" rx="11" stroke="#2A2B56" stroke-width="2"/>
<rect x="576.309" y="331" width="44" height="26" rx="11" stroke="#2A2B56" stroke-width="2"/>
<rect x="624.309" y="1" width="44" height="26" rx="11" stroke="#FF990A" stroke-width="2"/>
<rect x="624.309" y="31" width="44" height="26" rx="11" stroke="#FF990A" stroke-width="2"/>
<rect x="624.309" y="61" width="44" height="26" rx="11" stroke="#FF990A" stroke-width="2"/>
<rect x="624.309" y="91" width="44" height="26" rx="11" stroke="#FF990A" stroke-width="2"/>
<rect x="624.309" y="121" width="44" height="26" rx="11" stroke="#FF990A" stroke-width="2"/>
<rect x="624.309" y="151" width="44" height="26" rx="11" stroke="#FF990A" stroke-width="2"/>
<rect x="624.309" y="181" width="44" height="26" rx="11" stroke="#FF990A" stroke-width="2"/>
<rect x="624.309" y="211" width="44" height="26" rx="11" stroke="#FF990A" stroke-width="2"/>
<rect x="624.309" y="241" width="44" height="26" rx="11" stroke="#FF990A" stroke-width="2"/>
<rect x="624.309" y="271" width="44" height="26" rx="11" stroke="#FF990A" stroke-width="2"/>
<rect x="624.309" y="301" width="44" height="26" rx="11" stroke="#FF990A" stroke-width="2"/>
<rect x="624.309" y="331" width="44" height="26" rx="11" stroke="#FF990A" stroke-width="2"/>
<rect x="672.309" y="1" width="44" height="26" rx="11" stroke="#FF990A" stroke-width="2"/>
<rect x="672.309" y="31" width="44" height="26" rx="11" stroke="#FF990A" stroke-width="2"/>
<rect x="672.309" y="61" width="44" height="26" rx="11" stroke="#FF990A" stroke-width="2"/>
<rect x="672.309" y="91" width="44" height="26" rx="11" stroke="#FF990A" stroke-width="2"/>
<rect x="672.309" y="121" width="44" height="26" rx="11" stroke="#FF990A" stroke-width="2"/>
<rect x="672.309" y="151" width="44" height="26" rx="11" stroke="#FF990A" stroke-width="2"/>
<rect x="672.309" y="181" width="44" height="26" rx="11" stroke="#FF990A" stroke-width="2"/>
<rect x="672.309" y="211" width="44" height="26" rx="11" stroke="#FF990A" stroke-width="2"/>
<rect x="672.309" y="241" width="44" height="26" rx="11" stroke="#FF990A" stroke-width="2"/>
<rect x="672.309" y="271" width="44" height="26" rx="11" stroke="#FF990A" stroke-width="2"/>
<rect x="672.309" y="301" width="44" height="26" rx="11" stroke="#FF990A" stroke-width="2"/>
<rect x="672.309" y="331" width="44" height="26" rx="11" stroke="#FF990A" stroke-width="2"/>
<rect x="720.309" y="1" width="44" height="26" rx="11" stroke="#FF990A" stroke-width="2"/>
<rect x="720.309" y="31" width="44" height="26" rx="11" stroke="#FF990A" stroke-width="2"/>
<rect x="720.309" y="61" width="44" height="26" rx="11" stroke="#FF990A" stroke-width="2"/>
<rect x="720.309" y="91" width="44" height="26" rx="11" stroke="#FF990A" stroke-width="2"/>
<rect x="720.309" y="121" width="44" height="26" rx="11" stroke="#FF990A" stroke-width="2"/>
<rect x="720.309" y="151" width="44" height="26" rx="11" stroke="#FF990A" stroke-width="2"/>
<rect x="720.309" y="181" width="44" height="26" rx="11" stroke="#FF990A" stroke-width="2"/>
<rect x="720.309" y="211" width="44" height="26" rx="11" stroke="#FF990A" stroke-width="2"/>
<rect x="720.309" y="241" width="44" height="26" rx="11" stroke="#FF990A" stroke-width="2"/>
<rect x="720.309" y="271" width="44" height="26" rx="11" stroke="#FF990A" stroke-width="2"/>
<rect x="720.309" y="301" width="44" height="26" rx="11" stroke="#FF990A" stroke-width="2"/>
<rect x="720.309" y="331" width="44" height="26" rx="11" stroke="#FF990A" stroke-width="2"/>
<rect x="768.079" y="1" width="44" height="26" rx="11" stroke="#2A2B56" stroke-width="2"/>
<rect x="768.079" y="31" width="44" height="26" rx="11" stroke="#2A2B56" stroke-width="2"/>
<rect x="768.079" y="61" width="44" height="26" rx="11" stroke="#2A2B56" stroke-width="2"/>
<rect x="768.079" y="91" width="44" height="26" rx="11" stroke="#2A2B56" stroke-width="2"/>
<rect x="768.079" y="121" width="44" height="26" rx="11" stroke="#2A2B56" stroke-width="2"/>
<rect x="768.079" y="151" width="44" height="26" rx="11" stroke="#2A2B56" stroke-width="2"/>
<rect x="768.079" y="181" width="44" height="26" rx="11" stroke="#2A2B56" stroke-width="2"/>
<rect x="768.079" y="211" width="44" height="26" rx="11" stroke="#2A2B56" stroke-width="2"/>
<rect x="768.079" y="241" width="44" height="26" rx="11" stroke="#2A2B56" stroke-width="2"/>
<rect x="768.079" y="271" width="44" height="26" rx="11" stroke="#2A2B56" stroke-width="2"/>
<rect x="768.079" y="301" width="44" height="26" rx="11" stroke="#2A2B56" stroke-width="2"/>
<rect x="768.079" y="331" width="44" height="26" rx="11" stroke="#2A2B56" stroke-width="2"/>
<rect x="816.079" y="1" width="44" height="26" rx="11" stroke="#FF990A" stroke-width="2"/>
<rect x="816.079" y="31" width="44" height="26" rx="11" stroke="#FF990A" stroke-width="2"/>
<rect x="816.079" y="61" width="44" height="26" rx="11" stroke="#FF990A" stroke-width="2"/>
<rect x="816.079" y="91" width="44" height="26" rx="11" stroke="#FF990A" stroke-width="2"/>
<rect x="816.079" y="121" width="44" height="26" rx="11" stroke="#FF990A" stroke-width="2"/>
<rect x="816.079" y="151" width="44" height="26" rx="11" stroke="#FF990A" stroke-width="2"/>
<rect x="816.079" y="181" width="44" height="26" rx="11" stroke="#FF990A" stroke-width="2"/>
<rect x="816.079" y="211" width="44" height="26" rx="11" stroke="#FF990A" stroke-width="2"/>
<rect x="816.079" y="241" width="44" height="26" rx="11" stroke="#FF990A" stroke-width="2"/>
<rect x="816.079" y="271" width="44" height="26" rx="11" stroke="#FF990A" stroke-width="2"/>
<rect x="816.079" y="301" width="44" height="26" rx="11" stroke="#FF990A" stroke-width="2"/>
<rect x="816.079" y="331" width="44" height="26" rx="11" stroke="#FF990A" stroke-width="2"/>
<rect x="864.079" y="1" width="44" height="26" rx="11" stroke="#FF990A" stroke-width="2"/>
<rect x="864.079" y="31" width="44" height="26" rx="11" stroke="#FF990A" stroke-width="2"/>
<rect x="864.079" y="61" width="44" height="26" rx="11" stroke="#FF990A" stroke-width="2"/>
<rect x="864.079" y="91" width="44" height="26" rx="11" stroke="#FF990A" stroke-width="2"/>
<rect x="864.079" y="121" width="44" height="26" rx="11" stroke="#FF990A" stroke-width="2"/>
<rect x="864.079" y="151" width="44" height="26" rx="11" stroke="#FF990A" stroke-width="2"/>
<rect x="864.079" y="181" width="44" height="26" rx="11" stroke="#FF990A" stroke-width="2"/>
<rect x="864.079" y="211" width="44" height="26" rx="11" stroke="#FF990A" stroke-width="2"/>
<rect x="864.079" y="241" width="44" height="26" rx="11" stroke="#FF990A" stroke-width="2"/>
<rect x="864.079" y="271" width="44" height="26" rx="11" stroke="#FF990A" stroke-width="2"/>
<rect x="864.079" y="301" width="44" height="26" rx="11" stroke="#FF990A" stroke-width="2"/>
<rect x="864.079" y="331" width="44" height="26" rx="11" stroke="#FF990A" stroke-width="2"/>
<rect x="912.079" y="1" width="44" height="26" rx="11" stroke="#FF990A" stroke-width="2"/>
<rect x="912.079" y="31" width="44" height="26" rx="11" stroke="#FF990A" stroke-width="2"/>
<rect x="912.079" y="61" width="44" height="26" rx="11" stroke="#FF990A" stroke-width="2"/>
<rect x="912.079" y="91" width="44" height="26" rx="11" stroke="#FF990A" stroke-width="2"/>
<rect x="912.079" y="121" width="44" height="26" rx="11" stroke="#FF990A" stroke-width="2"/>
<rect x="912.079" y="151" width="44" height="26" rx="11" stroke="#FF990A" stroke-width="2"/>
<rect x="912.079" y="181" width="44" height="26" rx="11" stroke="#FF990A" stroke-width="2"/>
<rect x="912.079" y="211" width="44" height="26" rx="11" stroke="#FF990A" stroke-width="2"/>
<rect x="912.079" y="241" width="44" height="26" rx="11" stroke="#FF990A" stroke-width="2"/>
<rect x="912.079" y="271" width="44" height="26" rx="11" stroke="#FF990A" stroke-width="2"/>
<rect x="912.079" y="301" width="44" height="26" rx="11" stroke="#FF990A" stroke-width="2"/>
<rect x="912.079" y="331" width="44" height="26" rx="11" stroke="#FF990A" stroke-width="2"/>
</svg>
